<svg viewBox="0 0 27.8728 30.6602" xmlns="http://www.w3.org/2000/svg" xmlns:xlink="http://www.w3.org/1999/xlink" width="27.872803" height="30.660156" fill="none" customFrame="#000000">
	<path id="interactive_space" d="M6.9682 10.4523L9.75548 7.66502L6.9682 4.87774L4.18092 7.66502L6.9682 10.4523ZM2.78728 18.1173C2.02078 18.1173 1.36461 17.8444 0.818763 17.2986C0.272921 16.7527 0 16.0965 0 15.33L0 2.78728C0 2.02078 0.272921 1.36461 0.818763 0.818764C1.36461 0.272921 2.02078 0 2.78728 0L25.0855 0C25.852 0 26.5082 0.272921 27.054 0.818764C27.5999 1.36461 27.8728 2.02078 27.8728 2.78728L27.8728 15.33C27.8728 16.0965 27.5999 16.7527 27.054 17.2986C26.5082 17.8444 25.852 18.1173 25.0855 18.1173L20.591 18.1173C20.7304 17.6528 20.8233 17.1882 20.8698 16.7237C20.9162 16.2591 20.9162 15.7946 20.8698 15.33L25.0855 15.33L25.0855 2.78728L2.78728 2.78728L2.78728 15.33L7.00304 15.33C6.95659 15.7946 6.95659 16.2591 7.00304 16.7237C7.0495 17.1882 7.1424 17.6528 7.28177 18.1173L2.78728 18.1173ZM20.2078 8.36184C20.7885 8.36184 21.282 8.1586 21.6885 7.75212C22.095 7.34564 22.2982 6.85206 22.2982 6.27138C22.2982 5.6907 22.095 5.19712 21.6885 4.79064C21.282 4.38416 20.7885 4.18092 20.2078 4.18092C19.6271 4.18092 19.1335 4.38416 18.727 4.79064C18.3206 5.19712 18.1173 5.6907 18.1173 6.27138C18.1173 6.85206 18.3206 7.34564 18.727 7.75212C19.1335 8.1586 19.6271 8.36184 20.2078 8.36184ZM4.18092 30.6601L4.18092 27.7334C4.18092 26.9205 4.40739 26.1656 4.86032 25.4688C5.31325 24.772 5.91136 24.2493 6.65463 23.9009C7.79277 23.3667 8.97736 22.966 10.2084 22.6989C11.4395 22.4318 12.6821 22.2982 13.9364 22.2982C15.1907 22.2982 16.4333 22.4318 17.6644 22.6989C18.8954 22.966 20.08 23.3667 21.2182 23.9009C21.9614 24.2493 22.5595 24.772 23.0125 25.4688C23.4654 26.1656 23.6919 26.9205 23.6919 27.7334L23.6919 30.6601L4.18092 30.6601ZM6.9682 27.8728L20.9046 27.8728L20.9046 27.7334C20.9046 27.4547 20.8233 27.1992 20.6607 26.9669C20.4981 26.7347 20.2891 26.5605 20.0336 26.4443C19.058 26.003 18.0593 25.6662 17.0372 25.4339C16.0152 25.2017 14.9816 25.0855 13.9364 25.0855C12.8912 25.0855 11.8576 25.2017 10.8356 25.4339C9.81355 25.6662 8.81477 26.003 7.83922 26.4443C7.58372 26.5605 7.37468 26.7347 7.21209 26.9669C7.0495 27.1992 6.9682 27.4547 6.9682 27.7334L6.9682 27.8728ZM13.9364 20.9046C12.5892 20.9046 11.4395 20.4284 10.4871 19.4761C9.53482 18.5238 9.05866 17.374 9.05866 16.0269C9.05866 14.6797 9.53482 13.5299 10.4871 12.5776C11.4395 11.6253 12.5892 11.1491 13.9364 11.1491C15.2836 11.1491 16.4333 11.6253 17.3857 12.5776C18.338 13.5299 18.8141 14.6797 18.8141 16.0269C18.8141 17.374 18.338 18.5238 17.3857 19.4761C16.4333 20.4284 15.2836 20.9046 13.9364 20.9046ZM13.9364 18.1173C14.5171 18.1173 15.0107 17.9141 15.4171 17.5076C15.8236 17.1011 16.0269 16.6075 16.0269 16.0269C16.0269 15.4462 15.8236 14.9526 15.4171 14.5461C15.0107 14.1396 14.5171 13.9364 13.9364 13.9364C13.3557 13.9364 12.8621 14.1396 12.4557 14.5461C12.0492 14.9526 11.8459 15.4462 11.8459 16.0269C11.8459 16.6075 12.0492 17.1011 12.4557 17.5076C12.8621 17.9141 13.3557 18.1173 13.9364 18.1173Z" fill="rgb(78,47,117)" fill-opacity="0.5" fill-rule="nonzero" />
</svg>
