<svg viewBox="0 0 33.4473 33.4473" xmlns="http://www.w3.org/2000/svg" xmlns:xlink="http://www.w3.org/1999/xlink" width="33.447266" height="33.447266" fill="none" customFrame="#000000">
	<defs>
		<filter id="pixso_custom_mask_type_alpha">
			<feColorMatrix type="matrix" values="0 0 0 0 1 0 0 0 0 1 0 0 0 0 1 0 0 0 1 0 " />
		</filter>
	</defs>
	<mask id="mask_0" width="33.447365" height="33.447365" x="0.000000" y="0.000000" maskUnits="userSpaceOnUse">
		<g filter="url(#pixso_custom_mask_type_alpha)">
			<rect id="Bounding box" width="33.447365" height="33.447365" x="0.000000" y="0.000000" fill="rgb(217,217,217)" />
		</g>
	</mask>
	<g id="dashboard_customize" mask="url(#mask_0)">
		<path id="dashboard_customize" d="M4.18115 4.18066L15.3303 4.18066L15.3303 15.3298L4.18115 15.3298L4.18115 4.18066ZM18.1176 4.18066L29.2667 4.18066L29.2667 15.3298L18.1176 15.3298L18.1176 4.18066ZM4.18115 18.1171L15.3303 18.1171L15.3303 29.2662L4.18115 29.2662L4.18115 18.1171ZM22.2985 18.1171L25.0858 18.1171L25.0858 22.298L29.2667 22.298L29.2667 25.0853L25.0858 25.0853L25.0858 29.2662L22.2985 29.2662L22.2985 25.0853L18.1176 25.0853L18.1176 22.298L22.2985 22.298L22.2985 18.1171ZM20.9048 6.96794L20.9048 12.5425L26.4794 12.5425L26.4794 6.96794L20.9048 6.96794ZM6.96843 6.96794L6.96843 12.5425L12.543 12.5425L12.543 6.96794L6.96843 6.96794ZM6.96843 20.9043L6.96843 26.4789L12.543 26.4789L12.543 20.9043L6.96843 20.9043Z" fill="rgb(78,47,117)" fill-opacity="0.5" fill-rule="nonzero" />
	</g>
</svg>
