<svg viewBox="0 0 28.394 28.5581" xmlns="http://www.w3.org/2000/svg" xmlns:xlink="http://www.w3.org/1999/xlink" width="28.394043" height="28.558105" fill="none" customFrame="#000000">
	<path id="photo_auto_merge" d="M9.78898 21.6014C9.02248 21.6014 8.36631 21.3285 7.82046 20.7827C7.27462 20.2368 7.0017 19.5806 7.0017 18.8141L7.0017 3.4841C7.0017 2.7176 7.27462 2.06143 7.82046 1.51558C8.36631 0.969741 9.02248 0.69682 9.78898 0.69682L17.9766 0.69682C17.7908 1.13814 17.6572 1.59107 17.5759 2.05562C17.4946 2.52017 17.454 2.99633 17.454 3.4841L9.78898 3.4841L9.78898 17.6992C10.8342 16.7237 12.013 15.9688 13.3253 15.4346C14.6377 14.9003 16.0139 14.6332 17.454 14.6332C18.8709 14.6332 20.2413 14.9003 21.5652 15.4346C22.8892 15.9688 24.0738 16.7237 25.119 17.6992L25.119 11.1491C25.6068 11.1491 26.083 11.1085 26.5475 11.0272C27.0121 10.9459 27.465 10.8123 27.9063 10.6265L27.9063 18.8141C27.9063 19.5806 27.6334 20.2368 27.0875 20.7827C26.5417 21.3285 25.8855 21.6014 25.119 21.6014L9.78898 21.6014ZM5.05061 28.5348C4.2841 28.6277 3.6047 28.4419 3.01241 27.9773C2.42011 27.5128 2.06589 26.8973 1.94976 26.1308L0.033501 10.9052C-0.0826357 10.1387 0.103183 9.45353 0.590957 8.84962C1.07873 8.2457 1.70587 7.89729 2.47237 7.80438L4.21442 7.59534L4.21442 10.3826L2.82078 10.5568L4.7022 25.7823L15.0848 24.3887L22.6802 24.3887C22.6802 24.9926 22.4363 25.4978 21.9485 25.9043C21.4607 26.3108 20.9033 26.5605 20.2761 26.6534L5.05061 28.5348ZM21.8788 6.9682L24.3525 0L25.8855 0L28.3941 6.9682L26.8959 6.9682L26.3733 5.4352L23.8647 5.4352L23.3421 6.9682L21.8788 6.9682ZM24.2132 4.38997L26.0249 4.38997L25.119 1.533L24.2132 4.38997ZM17.454 17.4205C16.641 17.4205 15.8397 17.5366 15.05 17.7689C14.2602 18.0012 13.5286 18.3496 12.855 18.8141L22.053 18.8141C21.3794 18.3496 20.6478 18.0012 19.858 17.7689C19.0683 17.5366 18.267 17.4205 17.454 17.4205ZM17.454 5.57456C18.5225 5.57456 19.4283 5.9462 20.1716 6.68947C20.9149 7.43275 21.2865 8.33861 21.2865 9.40707C21.2865 10.4755 20.9149 11.3814 20.1716 12.1247C19.4283 12.8679 18.5225 13.2396 17.454 13.2396C16.3855 13.2396 15.4797 12.8679 14.7364 12.1247C13.9931 11.3814 13.6215 10.4755 13.6215 9.40707C13.6215 8.33861 13.9931 7.43275 14.7364 6.68947C15.4797 5.9462 16.3855 5.57456 17.454 5.57456ZM17.454 8.36184C17.152 8.36184 16.9024 8.46056 16.7049 8.65799C16.5075 8.85542 16.4088 9.10512 16.4088 9.40707C16.4088 9.70903 16.5075 9.95872 16.7049 10.1562C16.9024 10.3536 17.152 10.4523 17.454 10.4523C17.756 10.4523 18.0057 10.3536 18.2031 10.1562C18.4005 9.95872 18.4992 9.70903 18.4992 9.40707C18.4992 9.10512 18.4005 8.85542 18.2031 8.65799C18.0057 8.46056 17.756 8.36184 17.454 8.36184Z" fill="rgb(78,47,117)" fill-opacity="0.5" fill-rule="nonzero" />
</svg>
