<svg viewBox="0 0 40 40" xmlns="http://www.w3.org/2000/svg" xmlns:xlink="http://www.w3.org/1999/xlink" width="40.000000" height="40.000000" fill="none" customFrame="#000000">
	<rect id="TrendUp" width="40.000000" height="40.000000" x="0.000000" y="0.000000" fill="rgb(255,255,255)" fill-opacity="0" />
	<path id="Vector" d="M37.4997 8.75L37.4997 18.75C37.4997 19.0815 37.368 19.3995 37.1336 19.6339C36.8992 19.8683 36.5812 20 36.2497 20C35.9182 20 35.6003 19.8683 35.3658 19.6339C35.1314 19.3995 34.9997 19.0815 34.9997 18.75L34.9997 11.7672L22.1341 24.6344C22.018 24.7506 21.8801 24.8428 21.7284 24.9057C21.5766 24.9686 21.414 25.001 21.2497 25.001C21.0854 25.001 20.9228 24.9686 20.771 24.9057C20.6193 24.8428 20.4814 24.7506 20.3653 24.6344L14.9997 19.2672L4.63409 29.6344C4.39954 29.8689 4.08142 30.0007 3.74972 30.0007C3.41801 30.0007 3.09989 29.8689 2.86534 29.6344C2.63079 29.3998 2.49902 29.0817 2.49902 28.75C2.49902 28.4183 2.63079 28.1002 2.86534 27.8656L14.1153 16.6156C14.2314 16.4994 14.3693 16.4072 14.521 16.3443C14.6728 16.2814 14.8354 16.249 14.9997 16.249C15.164 16.249 15.3266 16.2814 15.4784 16.3443C15.6301 16.4072 15.768 16.4994 15.8841 16.6156L21.2497 21.9828L33.2325 10L26.2497 10C25.9182 10 25.6003 9.8683 25.3658 9.63388C25.1314 9.39946 24.9997 9.08152 24.9997 8.75C24.9997 8.41848 25.1314 8.10054 25.3658 7.86612C25.6003 7.6317 25.9182 7.5 26.2497 7.5L36.2497 7.5C36.5812 7.5 36.8992 7.6317 37.1336 7.86612C37.368 8.10054 37.4997 8.41848 37.4997 8.75Z" fill="rgb(255,255,255)" fill-rule="nonzero" />
</svg>
