<svg viewBox="0 0 40 40" xmlns="http://www.w3.org/2000/svg" xmlns:xlink="http://www.w3.org/1999/xlink" width="40.000000" height="40.000000" fill="none" customFrame="#000000">
	<rect id="UsersFour" width="40.000000" height="40.000000" x="0.000000" y="0.000000" fill="rgb(255,255,255)" fill-opacity="0" />
	<path id="Vector" d="M4.25 19.7501C4.38132 19.8486 4.53076 19.9202 4.68977 19.961C4.84879 20.0017 5.01427 20.0107 5.17678 19.9875C5.33928 19.9643 5.49562 19.9093 5.63687 19.8257C5.77812 19.742 5.90151 19.6314 6 19.5001C6.75682 18.491 7.73819 17.6719 8.86639 17.1078C9.99459 16.5437 11.2386 16.2501 12.5 16.2501C13.7614 16.2501 15.0054 16.5437 16.1336 17.1078C17.2618 17.6719 18.2432 18.491 19 19.5001C19.1991 19.765 19.4954 19.9401 19.8236 19.9867C20.1517 20.0332 20.485 19.9476 20.75 19.7485C20.8445 19.6782 20.9282 19.5945 20.9984 19.5001C21.7553 18.491 22.7366 17.6719 23.8648 17.1078C24.993 16.5437 26.2371 16.2501 27.4984 16.2501C28.7598 16.2501 30.0038 16.5437 31.132 17.1078C32.2602 17.6719 33.2416 18.491 33.9984 19.5001C34.1976 19.7653 34.4939 19.9405 34.8222 19.9873C35.1506 20.034 35.484 19.9484 35.7492 19.7493C36.0144 19.5502 36.1897 19.2538 36.2364 18.9255C36.2832 18.5972 36.1976 18.2637 35.9984 17.9985C34.892 16.5152 33.4165 15.3473 31.7188 14.611C32.6495 13.7612 33.3016 12.6499 33.5895 11.4229C33.8773 10.1959 33.7875 8.91047 33.3318 7.73541C32.8761 6.56036 32.0757 5.55053 31.0358 4.83846C29.9959 4.1264 28.765 3.74536 27.5047 3.74536C26.2444 3.74536 25.0135 4.1264 23.9736 4.83846C22.9336 5.55053 22.1333 6.56036 21.6776 7.73541C21.2219 8.91047 21.132 10.1959 21.4199 11.4229C21.7078 12.6499 22.3599 13.7612 23.2906 14.611C22.0648 15.1411 20.9511 15.8999 20.0094 16.8469C19.0676 15.8999 17.954 15.1411 16.7281 14.611C17.6589 13.7612 18.311 12.6499 18.5989 11.4229C18.8867 10.1959 18.7969 8.91047 18.3412 7.73541C17.8854 6.56036 17.0851 5.55053 16.0452 4.83846C15.0053 4.1264 13.7744 3.74536 12.5141 3.74536C11.2537 3.74536 10.0228 4.1264 8.98293 4.83846C7.94302 5.55053 7.14269 6.56036 6.68696 7.73541C6.23123 8.91047 6.14141 10.1959 6.42927 11.4229C6.71713 12.6499 7.36924 13.7612 8.3 14.611C6.59477 15.3449 5.11203 16.5135 4 18.0001C3.90151 18.1314 3.82985 18.2808 3.78911 18.4398C3.74837 18.5989 3.73935 18.7643 3.76256 18.9268C3.78578 19.0893 3.84077 19.2457 3.92441 19.3869C4.00804 19.5282 4.11868 19.6516 4.25 19.7501ZM27.5 6.25007C28.2417 6.25007 28.9667 6.47 29.5834 6.88206C30.2001 7.29411 30.6807 7.87978 30.9645 8.56501C31.2484 9.25023 31.3226 10.0042 31.1779 10.7317C31.0332 11.4591 30.6761 12.1273 30.1517 12.6517C29.6272 13.1762 28.959 13.5333 28.2316 13.678C27.5042 13.8227 26.7502 13.7484 26.0649 13.4646C25.3797 13.1808 24.794 12.7001 24.382 12.0835C23.9699 11.4668 23.75 10.7417 23.75 10.0001C23.75 9.00551 24.1451 8.05168 24.8483 7.34842C25.5516 6.64516 26.5054 6.25007 27.5 6.25007ZM12.5 6.25007C13.2417 6.25007 13.9667 6.47 14.5834 6.88206C15.2001 7.29411 15.6807 7.87978 15.9645 8.56501C16.2484 9.25023 16.3226 10.0042 16.1779 10.7317C16.0333 11.4591 15.6761 12.1273 15.1517 12.6517C14.6272 13.1762 13.959 13.5333 13.2316 13.678C12.5042 13.8227 11.7502 13.7484 11.0649 13.4646C10.3797 13.1808 9.79404 12.7001 9.38199 12.0835C8.96993 11.4668 8.75 10.7417 8.75 10.0001C8.75 9.00551 9.14509 8.05168 9.84835 7.34842C10.5516 6.64516 11.5054 6.25007 12.5 6.25007ZM31.7188 30.861C32.6495 30.0112 33.3016 28.8999 33.5895 27.6729C33.8773 26.4459 33.7875 25.1605 33.3318 23.9854C32.8761 22.8104 32.0757 21.8005 31.0358 21.0885C29.9959 20.3764 28.765 19.9954 27.5047 19.9954C26.2444 19.9954 25.0135 20.3764 23.9736 21.0885C22.9336 21.8005 22.1333 22.8104 21.6776 23.9854C21.2219 25.1605 21.132 26.4459 21.4199 27.6729C21.7078 28.8999 22.3599 30.0112 23.2906 30.861C22.0648 31.3911 20.9511 32.1499 20.0094 33.0969C19.0676 32.1499 17.954 31.3911 16.7281 30.861C17.6589 30.0112 18.311 28.8999 18.5989 27.6729C18.8867 26.4459 18.7969 25.1605 18.3412 23.9854C17.8854 22.8104 17.0851 21.8005 16.0452 21.0885C15.0053 20.3764 13.7744 19.9954 12.5141 19.9954C11.2537 19.9954 10.0228 20.3764 8.98293 21.0885C7.94302 21.8005 7.14269 22.8104 6.68696 23.9854C6.23123 25.1605 6.14141 26.4459 6.42927 27.6729C6.71713 28.8999 7.36924 30.0112 8.3 30.861C6.59477 31.5949 5.11203 32.7635 4 34.2501C3.90151 34.3814 3.82985 34.5308 3.78911 34.6898C3.74837 34.8489 3.73935 35.0143 3.76256 35.1768C3.78578 35.3393 3.84077 35.4957 3.92441 35.6369C4.00804 35.7782 4.11868 35.9016 4.25 36.0001C4.38132 36.0986 4.53076 36.1702 4.68977 36.211C4.84879 36.2517 5.01427 36.2607 5.17678 36.2375C5.33928 36.2143 5.49562 36.1593 5.63687 36.0757C5.77812 35.992 5.90151 35.8814 6 35.7501C6.75682 34.741 7.73819 33.9219 8.86639 33.3578C9.99459 32.7937 11.2386 32.5001 12.5 32.5001C13.7614 32.5001 15.0054 32.7937 16.1336 33.3578C17.2618 33.9219 18.2432 34.741 19 35.7501C19.1991 36.015 19.4954 36.1901 19.8236 36.2367C20.1517 36.2832 20.485 36.1976 20.75 35.9985C20.8445 35.9282 20.9282 35.8445 20.9984 35.7501C21.7553 34.741 22.7366 33.9219 23.8648 33.3578C24.993 32.7937 26.2371 32.5001 27.4984 32.5001C28.7598 32.5001 30.0038 32.7937 31.132 33.3578C32.2602 33.9219 33.2416 34.741 33.9984 35.7501C34.1976 36.0153 34.4939 36.1905 34.8222 36.2373C35.1506 36.284 35.484 36.1984 35.7492 35.9993C36.0144 35.8002 36.1897 35.5038 36.2364 35.1755C36.2832 34.8472 36.1976 34.5137 35.9984 34.2485C34.892 32.7652 33.4165 31.5973 31.7188 30.861ZM12.5 22.5001C13.2417 22.5001 13.9667 22.72 14.5834 23.1321C15.2001 23.5441 15.6807 24.1298 15.9645 24.815C16.2484 25.5002 16.3226 26.2542 16.1779 26.9817C16.0333 27.7091 15.6761 28.3773 15.1517 28.9017C14.6272 29.4262 13.959 29.7833 13.2316 29.928C12.5042 30.0727 11.7502 29.9984 11.0649 29.7146C10.3797 29.4308 9.79404 28.9501 9.38199 28.3335C8.96993 27.7168 8.75 26.9917 8.75 26.2501C8.75 25.2555 9.14509 24.3017 9.84835 23.5984C10.5516 22.8952 11.5054 22.5001 12.5 22.5001ZM27.5 22.5001C28.2417 22.5001 28.9667 22.72 29.5834 23.1321C30.2001 23.5441 30.6807 24.1298 30.9645 24.815C31.2484 25.5002 31.3226 26.2542 31.1779 26.9817C31.0332 27.7091 30.6761 28.3773 30.1517 28.9017C29.6272 29.4262 28.959 29.7833 28.2316 29.928C27.5042 30.0727 26.7502 29.9984 26.0649 29.7146C25.3797 29.4308 24.794 28.9501 24.382 28.3335C23.9699 27.7168 23.75 26.9917 23.75 26.2501C23.75 25.2555 24.1451 24.3017 24.8483 23.5984C25.5516 22.8952 26.5054 22.5001 27.5 22.5001Z" fill="rgb(255,255,255)" fill-rule="nonzero" />
</svg>
