<svg viewBox="0 0 22.2983 29.2664" xmlns="http://www.w3.org/2000/svg" xmlns:xlink="http://www.w3.org/1999/xlink" width="22.298340" height="29.266357" fill="none" customFrame="#000000">
	<path id="workspace_premium" d="M7.90891 16.3056L9.12834 12.3337L5.92297 9.75548L9.89484 9.75548L11.1491 5.85329L12.4034 9.75548L16.3753 9.75548L13.1351 12.3337L14.3545 16.3056L11.1491 13.8319L7.90891 16.3056ZM2.78728 29.2664L2.78728 18.5006C1.90464 17.525 1.21944 16.4101 0.731661 15.1558C0.243887 13.9016 0 12.566 0 11.1491C0 8.03666 1.08007 5.40036 3.24021 3.24021C5.40036 1.08007 8.03666 0 11.1491 0C14.2616 0 16.8979 1.08007 19.058 3.24021C21.2182 5.40036 22.2982 8.03666 22.2982 11.1491C22.2982 12.566 22.0544 13.9016 21.5666 15.1558C21.0788 16.4101 20.3936 17.525 19.511 18.5006L19.511 29.2664L11.1491 26.4792L2.78728 29.2664ZM11.1491 19.511C13.4719 19.511 15.4462 18.698 17.0721 17.0721C18.698 15.4462 19.511 13.4719 19.511 11.1491C19.511 8.82639 18.698 6.85206 17.0721 5.22615C15.4462 3.60024 13.4719 2.78728 11.1491 2.78728C8.82639 2.78728 6.85206 3.60024 5.22615 5.22615C3.60024 6.85206 2.78728 8.82639 2.78728 11.1491C2.78728 13.4719 3.60024 15.4462 5.22615 17.0721C6.85206 18.698 8.82639 19.511 11.1491 19.511ZM5.57456 25.1204L11.1491 23.6919L16.7237 25.1204L16.7237 20.8001C15.9107 21.2646 15.0339 21.6305 14.0932 21.8976C13.1525 22.1647 12.1711 22.2982 11.1491 22.2982C10.1271 22.2982 9.14576 22.1647 8.20506 21.8976C7.26435 21.6305 6.38752 21.2646 5.57456 20.8001L5.57456 25.1204Z" fill="rgb(78,47,117)" fill-opacity="0.5" fill-rule="nonzero" />
</svg>
